<svg data-v-423bf9ae="" xmlns="http://www.w3.org/2000/svg" viewBox="0 0 504 107" class="iconLeft"><!----><!----><!----><g data-v-423bf9ae="" id="2af58b81-d15d-4459-b036-d8931bc88145" fill="white" transform="matrix(6.243496581012949,0,0,6.243496581012949,94.9858082064438,3.5795118816018245)"><path d="M0.64 12.61L0.64 12.32L1.64 12.10L1.74 10.90L1.74 5.39L1.64 4.18L0.64 3.95L0.64 3.64L4.31 3.64L4.31 3.95L3.36 4.18L3.28 5.39L3.28 10.90L3.36 11.99L4.42 12.20L5.32 12.20L6.84 11.89L7.77 10.46L7.96 10.39L8.27 10.46L7.49 12.61L0.64 12.61ZM12.06 12.70L12.06 12.70Q11.12 12.70 10.38 12.30L10.38 12.30L10.38 12.30Q9.65 11.91 9.25 11.22L9.25 11.22L9.25 11.22Q8.85 10.53 8.85 9.67L8.85 9.67L8.85 9.67Q8.85 8.80 9.27 8.09L9.27 8.09L9.27 8.09Q9.69 7.38 10.42 6.97L10.42 6.97L10.42 6.97Q11.16 6.55 12.03 6.55L12.03 6.55L12.03 6.55Q12.97 6.55 13.71 6.94L13.71 6.94L13.71 6.94Q14.45 7.33 14.86 8.02L14.86 8.02L14.86 8.02Q15.27 8.71 15.27 9.56L15.27 9.56L15.27 9.56Q15.27 10.42 14.84 11.14L14.84 11.14L14.84 11.14Q14.41 11.85 13.67 12.28L13.67 12.28L13.67 12.28Q12.93 12.70 12.06 12.70L12.06 12.70ZM12.20 12.32L12.20 12.32Q13.02 12.32 13.36 11.59L13.36 11.59L13.36 11.59Q13.70 10.87 13.70 9.87L13.70 9.87L13.70 9.87Q13.70 9.19 13.49 8.50L13.49 8.50L13.49 8.50Q13.29 7.82 12.88 7.37L12.88 7.37L12.88 7.37Q12.47 6.92 11.89 6.92L11.89 6.92L11.89 6.92Q11.07 6.92 10.74 7.64L10.74 7.64L10.74 7.64Q10.40 8.37 10.40 9.39L10.40 9.39L10.40 9.39Q10.40 10.08 10.60 10.75L10.60 10.75L10.60 10.75Q10.80 11.43 11.21 11.87L11.21 11.87L11.21 11.87Q11.62 12.32 12.20 12.32L12.20 12.32ZM18.12 12.74L18.12 12.74Q17.62 12.74 17.21 12.52L17.21 12.52L17.21 12.52Q16.80 12.30 16.56 11.94L16.56 11.94L16.56 11.94Q16.32 11.57 16.32 11.17L16.32 11.17L16.32 11.17Q16.32 10.80 16.56 10.51L16.56 10.51L16.56 10.51Q16.79 10.23 17.06 10.14L17.06 10.14L19.69 9.21L19.78 8.79L19.78 8.42L19.78 8.42Q19.78 7.83 19.56 7.50L19.56 7.50L19.56 7.50Q19.33 7.16 18.83 6.97L18.83 6.97L18.83 6.97Q18.24 7.07 18.00 7.25L18.00 7.25L18.00 7.25Q17.76 7.44 17.76 7.72L17.76 7.72L17.76 7.72Q17.76 7.90 17.82 8.10L17.82 8.10L17.82 8.10Q17.88 8.30 18.02 8.61L18.02 8.61L17.01 9.01L16.61 8.29L16.75 7.55L16.75 7.55Q17.09 7.26 17.86 6.95L17.86 6.95L17.86 6.95Q18.62 6.63 19.33 6.63L19.33 6.63L19.33 6.63Q19.81 6.63 20.23 6.88L20.23 6.88L20.23 6.88Q20.64 7.12 20.90 7.55L20.90 7.55L20.90 7.55Q21.15 7.98 21.15 8.53L21.15 8.53L21.15 11.31L21.49 11.83L22.09 11.70L22.24 12.00L21.03 12.74L21.03 12.74Q20.58 12.59 20.25 12.39L20.25 12.39L20.25 12.39Q19.93 12.18 19.81 11.83L19.81 11.83L19.81 11.83Q19.51 12.17 19.07 12.46L19.07 12.46L19.07 12.46Q18.63 12.74 18.12 12.74L18.12 12.74ZM18.91 12.09L19.78 11.51L19.78 9.53L18.57 9.99L18.57 9.99Q18.21 10.13 18.01 10.41L18.01 10.41L18.01 10.41Q17.81 10.69 17.81 11.03L17.81 11.03L17.81 11.03Q17.81 11.46 18.17 11.77L18.17 11.77L18.17 11.77Q18.53 12.09 18.91 12.09L18.91 12.09ZM22.80 12.61L22.80 12.33L23.75 12.10L23.86 10.90L23.86 8.75L23.75 7.78L22.79 7.52L22.79 7.25L25.21 6.62L25.36 6.78L25.24 7.55L25.32 7.74L25.32 7.74Q25.68 7.36 26.24 6.99L26.24 6.99L26.24 6.99Q26.81 6.63 27.41 6.63L27.41 6.63L27.41 6.63Q28.18 6.63 28.58 6.94L28.58 6.94L28.58 6.94Q28.98 7.25 29.13 7.87L29.13 7.87L29.13 7.87Q29.29 8.49 29.29 9.56L29.29 9.56L29.29 10.90L29.38 12.10L30.34 12.33L30.34 12.61L26.97 12.61L26.97 12.33L27.81 12.10L27.90 10.90L27.90 9.53L27.90 9.53Q27.90 8.49 27.63 7.97L27.63 7.97L27.63 7.97Q27.36 7.45 26.65 7.45L26.65 7.45L25.24 8.27L25.24 10.90L25.33 12.10L26.21 12.33L26.21 12.61L22.80 12.61ZM34.22 12.74L34.22 12.74Q33.70 12.74 33.14 12.66L33.14 12.66L33.14 12.66Q32.58 12.58 32.13 12.49L32.13 12.49L32.13 12.49Q31.68 12.40 31.55 12.37L31.55 12.37L31.24 10.25L31.57 10.12L31.71 10.20L32.54 11.69L32.54 11.69Q33.25 12.33 34.15 12.33L34.15 12.33L34.15 12.33Q34.82 12.33 35.30 11.92L35.30 11.92L35.30 11.92Q35.78 11.51 35.78 10.76L35.78 10.76L35.78 10.76Q35.78 10.10 35.33 9.67L35.33 9.67L35.33 9.67Q34.88 9.24 34.06 8.78L34.06 8.78L33.74 8.59L33.74 8.59Q32.91 8.08 32.49 7.77L32.49 7.77L32.49 7.77Q32.07 7.46 31.75 6.99L31.75 6.99L31.75 6.99Q31.42 6.51 31.42 5.88L31.42 5.88L31.42 5.88Q31.42 5.21 31.84 4.66L31.84 4.66L31.84 4.66Q32.27 4.10 32.94 3.79L32.94 3.79L32.94 3.79Q33.62 3.47 34.33 3.47L34.33 3.47L34.33 3.47Q34.75 3.47 35.10 3.53L35.10 3.53L35.10 3.53Q35.44 3.58 35.96 3.71L35.96 3.71L36.60 3.84L36.75 5.85L36.65 5.91L36.41 5.82L35.72 4.46L35.72 4.46Q35.22 3.88 34.30 3.88L34.30 3.88L34.30 3.88Q33.62 3.88 33.24 4.27L33.24 4.27L33.24 4.27Q32.87 4.66 32.87 5.30L32.87 5.30L32.87 5.30Q32.87 5.78 33.16 6.17L33.16 6.17L33.16 6.17Q33.46 6.56 33.80 6.81L33.80 6.81L33.80 6.81Q34.15 7.05 34.90 7.53L34.90 7.53L34.90 7.53Q35.03 7.60 35.27 7.77L35.27 7.77L35.27 7.77Q35.89 8.13 36.29 8.44L36.29 8.44L36.29 8.44Q36.70 8.75 36.98 9.20L36.98 9.20L36.98 9.20Q37.27 9.65 37.27 10.25L37.27 10.25L37.27 10.25Q37.27 10.96 36.83 11.53L36.83 11.53L36.83 11.53Q36.39 12.10 35.69 12.42L35.69 12.42L35.69 12.42Q34.99 12.74 34.22 12.74L34.22 12.74ZM38.19 12.61L38.19 12.33L39.05 12.10L39.14 10.90L39.14 4.91L39.06 4.17L38.23 3.92L38.24 3.64L40.41 3.13L40.54 3.29L40.40 4.55L40.40 7.59L40.44 7.75L41.56 6.89L41.56 6.89Q42.04 6.63 42.37 6.63L42.37 6.63L42.37 6.63Q43.07 6.63 43.44 6.94L43.44 6.94L43.44 6.94Q43.80 7.25 43.94 7.87L43.94 7.87L43.94 7.87Q44.08 8.49 44.08 9.56L44.08 9.56L44.08 10.90L44.16 12.10L45.04 12.33L45.04 12.61L41.97 12.61L41.97 12.33L42.74 12.10L42.82 10.90L42.82 9.53L42.82 9.53Q42.82 8.42 42.58 7.86L42.58 7.86L42.58 7.86Q42.34 7.30 41.63 7.30L41.63 7.30L40.40 8.27L40.40 10.90L40.48 12.10L41.28 12.33L41.28 12.61L38.19 12.61ZM47.48 12.74L47.48 12.74Q46.99 12.74 46.58 12.52L46.58 12.52L46.58 12.52Q46.17 12.30 45.93 11.94L45.93 11.94L45.93 11.94Q45.69 11.57 45.69 11.17L45.69 11.17L45.69 11.17Q45.69 10.80 45.92 10.51L45.92 10.51L45.92 10.51Q46.16 10.23 46.43 10.14L46.43 10.14L49.05 9.21L49.15 8.79L49.15 8.42L49.15 8.42Q49.15 7.83 48.92 7.50L48.92 7.50L48.92 7.50Q48.70 7.16 48.19 6.97L48.19 6.97L48.19 6.97Q47.61 7.07 47.37 7.25L47.37 7.25L47.37 7.25Q47.13 7.44 47.13 7.72L47.13 7.72L47.13 7.72Q47.13 7.90 47.19 8.10L47.19 8.10L47.19 8.10Q47.25 8.30 47.39 8.61L47.39 8.61L46.38 9.01L45.98 8.29L46.12 7.55L46.12 7.55Q46.46 7.26 47.22 6.95L47.22 6.95L47.22 6.95Q47.99 6.63 48.70 6.63L48.70 6.63L48.70 6.63Q49.18 6.63 49.59 6.88L49.59 6.88L49.59 6.88Q50.01 7.12 50.26 7.55L50.26 7.55L50.26 7.55Q50.52 7.98 50.52 8.53L50.52 8.53L50.52 11.31L50.86 11.83L51.46 11.70L51.61 12.00L50.39 12.74L50.39 12.74Q49.94 12.59 49.62 12.39L49.62 12.39L49.62 12.39Q49.30 12.18 49.18 11.83L49.18 11.83L49.18 11.83Q48.88 12.17 48.44 12.46L48.44 12.46L48.44 12.46Q48.00 12.74 47.48 12.74L47.48 12.74ZM48.28 12.09L49.15 11.51L49.15 9.53L47.93 9.99L47.93 9.99Q47.58 10.13 47.38 10.41L47.38 10.41L47.38 10.41Q47.18 10.69 47.18 11.03L47.18 11.03L47.18 11.03Q47.18 11.46 47.54 11.77L47.54 11.77L47.54 11.77Q47.89 12.09 48.28 12.09L48.28 12.09ZM52.17 12.61L52.17 12.33L53.12 12.10L53.22 10.90L53.22 8.75L53.12 7.78L52.16 7.52L52.16 7.25L54.55 6.62L54.69 6.79L54.58 7.98L54.69 8.04L54.69 8.04Q54.97 7.49 55.45 7.06L55.45 7.06L55.45 7.06Q55.92 6.63 56.46 6.63L56.46 6.63L56.46 6.63Q56.74 6.63 56.98 6.71L56.98 6.71L56.98 6.71Q57.22 6.79 57.33 6.92L57.33 6.92L57.44 7.40L56.81 8.22L56.25 7.88L56.25 7.88Q56.11 7.78 55.99 7.74L55.99 7.74L55.99 7.74Q55.86 7.70 55.66 7.70L55.66 7.70L55.66 7.70Q55.36 7.70 55.11 7.92L55.11 7.92L55.11 7.92Q54.87 8.15 54.72 8.46L54.72 8.46L54.72 8.46Q54.58 8.76 54.58 8.94L54.58 8.94L54.58 10.90L54.67 12.10L55.78 12.33L55.78 12.61L52.17 12.61ZM64.24 12.67L64.24 12.67Q63.64 12.67 63.16 12.47L63.16 12.47L63.16 12.47Q62.67 12.26 62.40 11.99L62.40 11.99L60.50 9.95L60.17 9.72L60.17 10.87L60.28 12.09L61.18 12.32L61.18 12.61L57.74 12.61L57.74 12.32L58.68 12.09L58.79 10.87L58.79 4.91L58.69 4.17L57.78 3.92L57.79 3.64L60.18 3.13L60.32 3.29L60.18 4.55L60.17 9.53L61.43 8.67L62.81 7.34L61.93 7.07L61.96 6.77L64.96 6.77L64.94 7.05L63.66 7.41L61.46 9.16L63.85 11.66L63.85 11.66Q64.26 12.04 64.63 12.17L64.63 12.17L64.63 12.17Q65.01 12.30 65.41 12.32L65.41 12.32L65.42 12.55L64.24 12.67Z"></path></g><!----><g data-v-423bf9ae="" id="7cfac208-c5dc-448f-a171-c53f99b248d9" transform="matrix(1.086499532063802,0,0,1.086499532063802,-14.682260003455056,-0.20815502493253746)" stroke="none" fill="white"><path clip-rule="evenodd" d="M42.907 29.392c.293.537-.19.955.121 1.494 1.173-2.141 1.445-4.529 2.424-6.698.137 1.184-.03 2.398.385 3.659 2.606-1.977 5.463-3.48 8.146-5.257 1.09-.721 1.699-1.899 2.287-3.038 2.071-4.013 3.613-8.264 5.537-12.344 1.039-2.204 2.15-4.36 3.839-6.208-.663 1.919-1.345 3.832-1.985 5.758-1.185 3.559-2.266 7.143-2.862 10.861-.407 2.539-.13 5.014.46 7.479.069.29.16.574.283 1.005-1.623-.346-3.122-.575-4.561-1.007-.781-.234-1.375-.079-2.01.268-5.092 2.78-8.634 7.001-11.282 12.075-2.765 5.298-3.261 10.772-1.427 16.46.252.781.232 1.591.096 2.374-.211 1.214-.67 1.402-2.723 1.266-.06.458.295.697.537.971.584.658 1.195 1.417 2.188 1.209.985-.206 1.115-1.183 1.325-1.972.794-2.992.901-6.061.914-9.134.005-1.267.001-2.534.143-3.855 1.241 1.159 2.015 2.6 2.687 4.094 2.082 4.635 3.375 9.53 4.555 14.445.571 2.381 2.051 3.992 3.743 5.604.146-.468-.266-.613-.401-.885-.159-.319-.414-.592-.569-.914-.295-.612-.672-1.319-.164-1.908.545-.631 1.289-.247 1.878.049 2.398 1.204 4.603 2.731 6.756 4.318 8.988 6.625 16.445 14.674 22.259 24.212 1.508 2.474 1.314 1.845-.828 3.065-3.646 2.079-7.603 2.238-11.639 1.651-3.001-.437-5.977-1.007-8.901-1.833-1.052-.297-2.019-.644-2.833-1.432-.56-.543-1.286-.91-2.369-1.037.905.656 1.86.794 2.43 1.558-5.948 1.112-21.983-6.289-25.493-11.786.987-.043 1.911-.216 2.824-.449.915-.233 1.818-.051 2.749.048-1.025-.895-2.224-1.368-3.584-1.268-6.025.445-12.051.735-18.068-.072-1.999-.269-3.945-.768-6-1.74 4.426-1.377 8.53-2.882 12.477-4.79 1.853-.896 3.626-1.886 4.698-3.742.919.466 1.449 1.305 2.298 1.784-1.18-1.856-2.99-3.247-3.931-5.318-.24 1.279.229 2.601-.353 3.844-2.013-2.18-2.73-11.485-1.188-19.293 1.931-9.786 6.815-17.777 15.132-23.571zm-4.114 26.77c-3.339-6.651-2.363-13.1.732-19.481-.188.06-.287.121-.34.209-2.416 4.049-3.813 8.397-3.214 13.132.285 2.243.705 4.602 2.822 6.14zm29.901 37.493c4.174 3.498 13.055 4.806 16.021 2.334-5.585.734-10.751-.212-16.021-2.334zm-4.02-2.352c-2.171-1.574-3.744-4.299-6.952-3.583.251.524 1.171.2 1.399.819 1.001 2.707 3.348 2.601 5.553 2.764zm-17.498-6.154c-.761-1.949-.269-3.726.887-5.644-1.767 1.492-2.085 3.82-.887 5.644zm-4.819-8.359c-1.391 1.327-1.669 3.243-.699 4.805-.486-1.703-.052-3.258.699-4.805zm1.738 6.479c-.706-1.756.111-3.261.808-4.985-1.5 1.482-1.802 3.426-.808 4.985z"></path><path clip-rule="evenodd" d="M66.761 61.803c.724 1.915.603 6.253-.262 9.434l-6.271-4.439c3.004-.681 5.112-2.274 6.533-4.995z"></path></g><!----></svg>